<mxfile host="app.diagrams.net" agent="Mozilla/5.0 (Windows NT 10.0; Win64; x64) AppleWebKit/537.36 (KHTML, like Gecko) Chrome/131.0.0.0 Safari/537.36" version="24.8.9">
  <diagram name="Page-1" id="ccnogXG_GqPwfmbx7STs">
    <mxGraphModel dx="1050" dy="522" grid="1" gridSize="10" guides="1" tooltips="1" connect="1" arrows="1" fold="1" page="1" pageScale="1" pageWidth="827" pageHeight="1169" math="0" shadow="0">
      <root>
        <mxCell id="0" />
        <mxCell id="1" parent="0" />
        <mxCell id="HVsWzAY_gVDG6LzxKAJI-3" value="" style="edgeStyle=orthogonalEdgeStyle;rounded=0;orthogonalLoop=1;jettySize=auto;html=1;" edge="1" parent="1" source="HVsWzAY_gVDG6LzxKAJI-1" target="HVsWzAY_gVDG6LzxKAJI-2">
          <mxGeometry relative="1" as="geometry" />
        </mxCell>
        <mxCell id="HVsWzAY_gVDG6LzxKAJI-1" value="START" style="ellipse;whiteSpace=wrap;html=1;" vertex="1" parent="1">
          <mxGeometry x="354" y="40" width="120" height="80" as="geometry" />
        </mxCell>
        <mxCell id="HVsWzAY_gVDG6LzxKAJI-5" value="" style="edgeStyle=orthogonalEdgeStyle;rounded=0;orthogonalLoop=1;jettySize=auto;html=1;" edge="1" parent="1" source="HVsWzAY_gVDG6LzxKAJI-2" target="HVsWzAY_gVDG6LzxKAJI-4">
          <mxGeometry relative="1" as="geometry" />
        </mxCell>
        <mxCell id="HVsWzAY_gVDG6LzxKAJI-2" value="แสดง &quot;Hello World.&quot;" style="shape=parallelogram;perimeter=parallelogramPerimeter;whiteSpace=wrap;html=1;fixedSize=1;" vertex="1" parent="1">
          <mxGeometry x="337" y="140" width="154" height="60" as="geometry" />
        </mxCell>
        <mxCell id="HVsWzAY_gVDG6LzxKAJI-4" value="END" style="ellipse;whiteSpace=wrap;html=1;" vertex="1" parent="1">
          <mxGeometry x="354" y="220" width="120" height="80" as="geometry" />
        </mxCell>
      </root>
    </mxGraphModel>
  </diagram>
</mxfile>
